<?xml version="1.0" encoding="utf-8"?>
<!-- Generator: Adobe Illustrator 19.2.1, SVG Export Plug-In . SVG Version: 6.00 Build 0)  -->
<svg version="1.1" id="Layer_1" xmlns="http://www.w3.org/2000/svg" xmlns:xlink="http://www.w3.org/1999/xlink" x="0px" y="0px"
	 viewBox="0 0 800 800" style="enable-background:new 0 0 800 800;" xml:space="preserve">
<style type="text/css">
	.st0{clip-path:url(#SVGID_2_);fill:#5784C5;stroke:#5784C5;stroke-width:6;stroke-miterlimit:10;}
</style>
<g>
	<defs>
		<rect id="SVGID_1_" y="0" width="817.1" height="817.1"/>
	</defs>
	<clipPath id="SVGID_2_">
		<use xlink:href="#SVGID_1_"  style="overflow:visible;"/>
	</clipPath>
	<path class="st0" d="M-34.9,823c0.1-2.6-53.9-7.5-54-7c-0.2,2.2,41.9,19.6,56.9,4.4c19.7-20,3.9-80.5,2.4-80.4
		c-0.5,0-1.4,6.6,1.2,8.5c0.2,0.2,0.4,0.3,0.6,0.3c0.1,0,0.1,0,0.1,0c5.8,2,10.8,7.8,10.8,7.8c6.1,4,29.1,13.8,47.1,18.8
		c31.7,8.7,36.3,9.3,54.1,12.3c1.7,0.3,11.1,1.7,20.8,2.7c14.6,1.5,34,3.6,57.3,1.1c15.5-1.7,27.9-4.8,35.5-7
		c9.9-2.9,14.6-5.1,50.6-18.1c2.6-1,6.8-2.5,12.5-4.3c9.1-2.9,16.8-5.1,22.6-6.7c1.4-0.4,2.6-0.7,3.7-1c0,0,2-0.5,3.9-1
		c41.8-10.2,81.4-11.5,81.4-11.5c23.3-0.6,41.6,1.2,50,2.3c26.3,3.2,28.6,6.7,86,18.5c14.1,2.9,29,5.7,48.7,7.3
		c8.7,0.7,17.6,1.1,27.5,1c27.9,0,48.3-0.1,73.5-9.3c37.1-13.7,59-38.1,67.3-47.5c20.5-23.4,29.3-46,33.6-57.4
		c4.5-11.8,16.1-43.4,12.9-83.1c-2.3-28.3-11.3-47.9-29.2-87.1c-17.3-37.8-31.9-57.5-35.6-94.5c-1.5-15.2-0.4-25.7,0-28.7
		c3-25,12.8-39.7,26.7-64.8c8.5-15.5,23.8-43,36.1-74.2c10.8-27.3,16.8-43.2,19.1-66.9c4.2-44-10.5-76.7-13.6-83.7
		c-2.8-6.1-10.4-21.9-28.6-43.2c-5.9-6.9-18.4-20.8-24.7-26.9c-1-1-3.7-3.5-6.8-7.4c-2.7-3.4-3.4-5-5-7c-2.2-2.7-5.9-6.1-12.7-8.5
		c-283.7-0.1-567.4-0.3-851-0.4c0.2,286.8,0.4,573.6,0.7,860.4c12.3-3.6,29.7-8.1,50.9-11.9C-63.6,822.2-35,824.9-34.9,823z"/>
</g>
</svg>
